<mxfile host="app.diagrams.net" modified="2023-07-03T20:53:44.834Z" agent="Mozilla/5.0 (Windows NT 10.0; Win64; x64) AppleWebKit/537.36 (KHTML, like Gecko) Chrome/114.0.0.0 Safari/537.36" etag="cA4IF2MpLpFQX2u77A6l" version="21.5.2" type="device">
  <diagram name="Page-1" id="c9db0220-8083-56f3-ca83-edcdcd058819">
    <mxGraphModel dx="455" dy="2018.5" grid="1" gridSize="10" guides="1" tooltips="1" connect="1" arrows="1" fold="1" page="1" pageScale="1.5" pageWidth="826" pageHeight="1169" background="#ffffff" math="0" shadow="0">
      <root>
        <mxCell id="0" style=";html=1;" />
        <mxCell id="1" style=";html=1;" parent="0" />
        <mxCell id="2H6lYmsr3XmS9fiY3lEI-2" value="" style="verticalLabelPosition=bottom;verticalAlign=top;html=1;shadow=0;dashed=0;strokeWidth=1;shape=mxgraph.android.phone2;strokeColor=#c0c0c0;" vertex="1" parent="1">
          <mxGeometry x="40" y="-1720" width="520" height="880" as="geometry" />
        </mxCell>
        <mxCell id="2H6lYmsr3XmS9fiY3lEI-3" value="" style="rounded=0;whiteSpace=wrap;html=1;fillColor=#fa6800;fontColor=#000000;strokeColor=#C73500;" vertex="1" parent="1">
          <mxGeometry x="60" y="-1000" width="480" height="80" as="geometry" />
        </mxCell>
        <mxCell id="2H6lYmsr3XmS9fiY3lEI-4" value="&lt;font size=&quot;1&quot; face=&quot;Verdana&quot;&gt;&lt;b&gt;RUTINAS&lt;/b&gt;&lt;/font&gt;" style="rounded=1;whiteSpace=wrap;html=1;" vertex="1" parent="1">
          <mxGeometry x="80" y="-990" width="120" height="60" as="geometry" />
        </mxCell>
        <mxCell id="2H6lYmsr3XmS9fiY3lEI-5" value="&lt;font size=&quot;1&quot; face=&quot;Verdana&quot;&gt;&lt;b&gt;PERFIL&lt;/b&gt;&lt;/font&gt;" style="rounded=1;whiteSpace=wrap;html=1;" vertex="1" parent="1">
          <mxGeometry x="400" y="-990" width="120" height="60" as="geometry" />
        </mxCell>
        <mxCell id="2H6lYmsr3XmS9fiY3lEI-6" value="&lt;font size=&quot;1&quot; face=&quot;Verdana&quot;&gt;&lt;b&gt;INICIO&lt;/b&gt;&lt;/font&gt;" style="rounded=1;whiteSpace=wrap;html=1;" vertex="1" parent="1">
          <mxGeometry x="240" y="-990" width="120" height="60" as="geometry" />
        </mxCell>
        <mxCell id="2H6lYmsr3XmS9fiY3lEI-18" value="" style="group" vertex="1" connectable="0" parent="1">
          <mxGeometry x="840" y="-1310" width="30" height="30" as="geometry" />
        </mxCell>
        <mxCell id="2H6lYmsr3XmS9fiY3lEI-20" value="" style="rounded=1;fillColor=#F1F2F4;strokeColor=#787878;html=1;whiteSpace=wrap;fontColor=#596780;align=center;verticalAlign=middle;fontStyle=0;fontSize=12;sketch=0;strokeWidth=2;" vertex="1" parent="2H6lYmsr3XmS9fiY3lEI-18">
          <mxGeometry width="30" height="30" as="geometry" />
        </mxCell>
        <mxCell id="2H6lYmsr3XmS9fiY3lEI-23" value="" style="shape=mxgraph.mockup.markup.redX;fillColor=#ff0000;html=1;shadow=0;whiteSpace=wrap;strokeColor=none;" vertex="1" parent="2H6lYmsr3XmS9fiY3lEI-18">
          <mxGeometry x="2.5" y="2.5" width="25" height="25" as="geometry" />
        </mxCell>
        <mxCell id="2H6lYmsr3XmS9fiY3lEI-9" value="" style="rounded=1;whiteSpace=wrap;html=1;fillColor=none;strokeColor=#000000;" vertex="1" parent="1">
          <mxGeometry x="730" y="-1580" width="280" height="150" as="geometry" />
        </mxCell>
        <mxCell id="2H6lYmsr3XmS9fiY3lEI-25" value="" style="group" vertex="1" connectable="0" parent="1">
          <mxGeometry x="820" y="-1410" width="30" height="30" as="geometry" />
        </mxCell>
        <mxCell id="2H6lYmsr3XmS9fiY3lEI-14" value="" style="rounded=1;fillColor=#F1F2F4;strokeColor=#787878;html=1;whiteSpace=wrap;fontColor=#596780;align=center;verticalAlign=middle;fontStyle=0;fontSize=12;sketch=0;strokeWidth=2;" vertex="1" parent="2H6lYmsr3XmS9fiY3lEI-25">
          <mxGeometry width="30" height="30" as="geometry" />
        </mxCell>
        <mxCell id="2H6lYmsr3XmS9fiY3lEI-12" value="" style="html=1;dashed=0;aspect=fixed;verticalLabelPosition=bottom;verticalAlign=top;align=center;shape=mxgraph.gmdl.edit;strokeColor=#d79b00;fillColor=#ffcd28;shadow=0;strokeWidth=1;perimeterSpacing=1;gradientColor=#ffa500;" vertex="1" parent="2H6lYmsr3XmS9fiY3lEI-25">
          <mxGeometry x="2.5" y="2.5" width="25" height="25" as="geometry" />
        </mxCell>
        <mxCell id="2H6lYmsr3XmS9fiY3lEI-26" value="" style="group" vertex="1" connectable="0" parent="1">
          <mxGeometry x="590" y="-1350" width="30" height="30" as="geometry" />
        </mxCell>
        <mxCell id="2H6lYmsr3XmS9fiY3lEI-27" style="edgeStyle=orthogonalEdgeStyle;rounded=0;orthogonalLoop=1;jettySize=auto;html=1;exitX=0;exitY=0.25;exitDx=0;exitDy=0;" edge="1" parent="2H6lYmsr3XmS9fiY3lEI-26" source="2H6lYmsr3XmS9fiY3lEI-28">
          <mxGeometry relative="1" as="geometry">
            <mxPoint x="50" y="80" as="targetPoint" />
          </mxGeometry>
        </mxCell>
        <mxCell id="2H6lYmsr3XmS9fiY3lEI-28" value="" style="rounded=1;fillColor=#F1F2F4;strokeColor=#787878;html=1;whiteSpace=wrap;fontColor=#596780;align=center;verticalAlign=middle;fontStyle=0;fontSize=12;sketch=0;strokeWidth=2;" vertex="1" parent="2H6lYmsr3XmS9fiY3lEI-26">
          <mxGeometry width="30" height="30" as="geometry" />
        </mxCell>
        <mxCell id="2H6lYmsr3XmS9fiY3lEI-29" value="" style="shape=mxgraph.mockup.markup.redX;fillColor=#ff0000;html=1;shadow=0;whiteSpace=wrap;strokeColor=none;" vertex="1" parent="2H6lYmsr3XmS9fiY3lEI-26">
          <mxGeometry x="2.5" y="2.5" width="25" height="25" as="geometry" />
        </mxCell>
        <mxCell id="2H6lYmsr3XmS9fiY3lEI-30" value="" style="group" vertex="1" connectable="0" parent="1">
          <mxGeometry x="590" y="-1350" width="30" height="30" as="geometry" />
        </mxCell>
        <mxCell id="2H6lYmsr3XmS9fiY3lEI-31" style="edgeStyle=orthogonalEdgeStyle;rounded=0;orthogonalLoop=1;jettySize=auto;html=1;exitX=0;exitY=0.25;exitDx=0;exitDy=0;" edge="1" parent="2H6lYmsr3XmS9fiY3lEI-30" source="2H6lYmsr3XmS9fiY3lEI-32">
          <mxGeometry relative="1" as="geometry">
            <mxPoint x="50" y="80" as="targetPoint" />
          </mxGeometry>
        </mxCell>
        <mxCell id="2H6lYmsr3XmS9fiY3lEI-32" value="" style="rounded=1;fillColor=#F1F2F4;strokeColor=#787878;html=1;whiteSpace=wrap;fontColor=#596780;align=center;verticalAlign=middle;fontStyle=0;fontSize=12;sketch=0;strokeWidth=2;" vertex="1" parent="2H6lYmsr3XmS9fiY3lEI-30">
          <mxGeometry width="30" height="30" as="geometry" />
        </mxCell>
        <mxCell id="2H6lYmsr3XmS9fiY3lEI-33" value="" style="shape=mxgraph.mockup.markup.redX;fillColor=#ff0000;html=1;shadow=0;whiteSpace=wrap;strokeColor=none;" vertex="1" parent="2H6lYmsr3XmS9fiY3lEI-30">
          <mxGeometry x="2.5" y="2.5" width="25" height="25" as="geometry" />
        </mxCell>
        <mxCell id="2H6lYmsr3XmS9fiY3lEI-34" value="" style="group" vertex="1" connectable="0" parent="1">
          <mxGeometry x="590" y="-1350" width="30" height="30" as="geometry" />
        </mxCell>
        <mxCell id="2H6lYmsr3XmS9fiY3lEI-35" style="edgeStyle=orthogonalEdgeStyle;rounded=0;orthogonalLoop=1;jettySize=auto;html=1;exitX=0;exitY=0.25;exitDx=0;exitDy=0;" edge="1" parent="2H6lYmsr3XmS9fiY3lEI-34" source="2H6lYmsr3XmS9fiY3lEI-36">
          <mxGeometry relative="1" as="geometry">
            <mxPoint x="50" y="80" as="targetPoint" />
          </mxGeometry>
        </mxCell>
        <mxCell id="2H6lYmsr3XmS9fiY3lEI-36" value="" style="rounded=1;fillColor=#F1F2F4;strokeColor=#787878;html=1;whiteSpace=wrap;fontColor=#596780;align=center;verticalAlign=middle;fontStyle=0;fontSize=12;sketch=0;strokeWidth=2;" vertex="1" parent="2H6lYmsr3XmS9fiY3lEI-34">
          <mxGeometry width="30" height="30" as="geometry" />
        </mxCell>
        <mxCell id="2H6lYmsr3XmS9fiY3lEI-37" value="" style="shape=mxgraph.mockup.markup.redX;fillColor=#ff0000;html=1;shadow=0;whiteSpace=wrap;strokeColor=none;" vertex="1" parent="2H6lYmsr3XmS9fiY3lEI-34">
          <mxGeometry x="2.5" y="2.5" width="25" height="25" as="geometry" />
        </mxCell>
        <mxCell id="2H6lYmsr3XmS9fiY3lEI-38" value="" style="group" vertex="1" connectable="0" parent="1">
          <mxGeometry x="590" y="-1350" width="30" height="30" as="geometry" />
        </mxCell>
        <mxCell id="2H6lYmsr3XmS9fiY3lEI-39" style="edgeStyle=orthogonalEdgeStyle;rounded=0;orthogonalLoop=1;jettySize=auto;html=1;exitX=0;exitY=0.25;exitDx=0;exitDy=0;" edge="1" parent="2H6lYmsr3XmS9fiY3lEI-38" source="2H6lYmsr3XmS9fiY3lEI-40">
          <mxGeometry relative="1" as="geometry">
            <mxPoint x="50" y="80" as="targetPoint" />
          </mxGeometry>
        </mxCell>
        <mxCell id="2H6lYmsr3XmS9fiY3lEI-40" value="" style="rounded=1;fillColor=#F1F2F4;strokeColor=#787878;html=1;whiteSpace=wrap;fontColor=#596780;align=center;verticalAlign=middle;fontStyle=0;fontSize=12;sketch=0;strokeWidth=2;" vertex="1" parent="2H6lYmsr3XmS9fiY3lEI-38">
          <mxGeometry width="30" height="30" as="geometry" />
        </mxCell>
        <mxCell id="2H6lYmsr3XmS9fiY3lEI-41" value="" style="shape=mxgraph.mockup.markup.redX;fillColor=#ff0000;html=1;shadow=0;whiteSpace=wrap;strokeColor=none;" vertex="1" parent="2H6lYmsr3XmS9fiY3lEI-38">
          <mxGeometry x="2.5" y="2.5" width="25" height="25" as="geometry" />
        </mxCell>
      </root>
    </mxGraphModel>
  </diagram>
</mxfile>
